<svg xmlns="http://www.w3.org/2000/svg" width="32" height="32" viewBox="0 0 32 32">
    <g fill="none" fill-rule="evenodd">
        <g fill="#FFF" fill-rule="nonzero">
            <path d="M417 386c2.761 0 5 2.239 5 5v10c0 2.761-2.239 5-5 5h-18c-1.326 0-2.598-.527-3.536-1.464-.937-.938-1.464-2.21-1.464-3.536v-10c0-2.761 2.239-5 5-5zm3 8h-24v7c0 1.657 1.343 3 3 3h18c1.657 0 3-1.343 3-3v-7zm-3 6c.552 0 1 .448 1 1s-.448 1-1 1h-4c-.552 0-1-.448-1-1s.448-1 1-1zm0-12h-18c-1.657 0-3 1.343-3 3v1h24v-1c0-1.657-1.343-3-3-3z" transform="translate(-392 -380)"/>
        </g>
    </g>
</svg>
