<svg xmlns="http://www.w3.org/2000/svg" width="32" height="32" viewBox="0 0 32 32">
    <g fill="none" fill-rule="evenodd">
        <g fill="#27373E" fill-rule="nonzero">
            <g>
                <path d="M17.686 15.09c.785 0 1.422.573 1.495 1.314l.006.14c.028.81-.64 1.456-1.473 1.456H1.502c-.786 0-1.423-.573-1.495-1.314L0 16.545c0-.808.667-1.455 1.502-1.455h16.184zm-5.534-7.491c.785 0 1.423.573 1.495 1.314l.007.14c.027.782-.64 1.456-1.502 1.456H1.502c-.786 0-1.423-.573-1.495-1.314L0 9.054c0-.808.667-1.455 1.502-1.455h10.65zM23.498 0c.785 0 1.422.573 1.494 1.314l.007.141c.028.808-.667 1.455-1.501 1.455H1.502C.716 2.91.079 2.337.007 1.596L0 1.456C0 .645.667 0 1.502 0h21.996z" transform="translate(-392 -128) translate(396 135)"/>
            </g>
        </g>
    </g>
</svg>
