<svg id="SvgjsSvg1001" width="288" height="288" xmlns="http://www.w3.org/2000/svg" version="1.1" xmlns:xlink="http://www.w3.org/1999/xlink" xmlns:svgjs="http://svgjs.com/svgjs"><defs id="SvgjsDefs1002"></defs><g id="SvgjsG1008" transform="matrix(0.9167,0,0,0.9167,12.369981362915041,11.995199364471432)"><svg xmlns="http://www.w3.org/2000/svg" width="288" height="288" viewBox="0 0 32 32"><path fill="#ffffff" fill-rule="nonzero" d="M17.686 15.09c.785 0 1.422.573 1.495 1.314l.006.14c.028.81-.64 1.456-1.473 1.456H1.502c-.786 0-1.423-.573-1.495-1.314L0 16.545c0-.808.667-1.455 1.502-1.455h16.184zm-5.534-7.491c.785 0 1.423.573 1.495 1.314l.007.14c.027.782-.64 1.456-1.502 1.456H1.502c-.786 0-1.423-.573-1.495-1.314L0 9.054c0-.808.667-1.455 1.502-1.455h10.65zM23.498 0c.785 0 1.422.573 1.494 1.314l.007.141c.028.808-.667 1.455-1.501 1.455H1.502C.716 2.91.079 2.337.007 1.596L0 1.456C0 .645.667 0 1.502 0h21.996z" transform="translate(4 7)" class="color27373E svgShape"></path></svg></g></svg>