<svg xmlns="http://www.w3.org/2000/svg" width="32" height="32" viewBox="0 0 32 32">
    <g fill="none" fill-rule="evenodd">
        <g fill="#C9D6DF" fill-rule="nonzero">
            <path d="M614.823 11h-16.646c-1.204 0-2.177.921-2.177 2.06v11.88c0 1.139.973 2.06 2.177 2.06h16.646c1.204 0 2.177-.921 2.177-2.06V13.06c0-1.139-.973-2.06-2.177-2.06zm.128 13.94c0 .072-.051.12-.128.12h-16.646c-.077 0-.128-.048-.128-.12V16.6l7.068 5.018c.41.291.896.46 1.383.46s.973-.145 1.357-.436l7.094-5.042v8.34zm0-10.764l-8.323 5.89c-.077.05-.18.05-.282 0l-8.297-5.89V13.06c0-.073.051-.122.128-.122h16.646c.077 0 .128.049.128.122v1.115z" transform="translate(-590 -3)"/>
        </g>
    </g>
</svg>